<svg width="109" height="412" viewBox="0 0 109 412" fill="none" xmlns="http://www.w3.org/2000/svg">
<path d="M55.7794 4.4971C56.6062 3.39133 56.3801 1.82465 55.2743 0.997826C54.1685 0.171002 52.6018 0.397133 51.775 1.5029L55.7794 4.4971ZM33.2021 168.571L32.2442 170.88L33.2021 168.571ZM105.093 140.465L107.401 139.503L105.093 140.465ZM53.7772 123.214L53.1677 120.79L53.7772 123.214ZM92.1851 411.489C93.5597 411.618 94.7786 410.608 94.9074 409.233L97.0071 386.831C97.1359 385.457 96.126 384.238 94.7513 384.109C93.3766 383.98 92.1577 384.99 92.0289 386.365L90.1625 406.278L70.2498 404.411C68.8751 404.282 67.6563 405.292 67.5274 406.667C67.3986 408.042 68.4085 409.261 69.7832 409.389L92.1851 411.489ZM51.775 1.5029C50.8411 2.75188 49.8946 4.03896 48.9381 5.36161L52.9898 8.29144C53.9309 6.99 54.8617 5.72439 55.7794 4.4971L51.775 1.5029ZM43.4367 13.2122C41.6829 15.7932 39.9136 18.4728 38.1446 21.2369L42.3559 23.9322C44.1 21.2071 45.844 18.5658 47.5723 16.0224L43.4367 13.2122ZM33.0858 29.3828C31.4547 32.0908 29.8365 34.8606 28.2437 37.6808L32.5973 40.1397C34.1664 37.3614 35.7611 34.6319 37.3689 31.9626L33.0858 29.3828ZM23.646 46.1063C22.1593 48.9305 20.7078 51.7923 19.3033 54.6813L23.8 56.8675C25.18 54.0289 26.6073 51.2147 28.0704 48.4355L23.646 46.1063ZM15.2488 63.4039C13.9442 66.3487 12.6983 69.3112 11.5229 72.2808L16.172 74.1209C17.3213 71.2174 18.5411 68.3166 19.8203 65.4291L15.2488 63.4039ZM8.17609 81.3291C7.11937 84.4093 6.15082 87.487 5.28398 90.5504L10.0951 91.9118C10.9352 88.9427 11.8761 85.9522 12.9055 82.9517L8.17609 81.3291ZM2.94393 99.9581C2.25733 103.185 1.702 106.384 1.29526 109.541L6.25427 110.18C6.64211 107.17 7.1735 104.105 7.83443 100.999L2.94393 99.9581ZM0.526185 119.303C0.44214 122.653 0.558751 125.938 0.900869 129.139L5.87254 128.607C5.55602 125.646 5.44551 122.581 5.52461 119.428L0.526185 119.303ZM2.74721 138.891C3.65902 142.138 4.86613 145.259 6.39992 148.223L10.8408 145.926C9.47378 143.284 8.38744 140.482 7.56097 137.539L2.74721 138.891ZM11.9886 156.59C14.0928 159.081 16.5093 161.39 19.2566 163.498L22.2999 159.531C19.8309 157.637 17.6759 155.574 15.8081 153.363L11.9886 156.59ZM27.7063 168.792C29.1555 169.53 30.6676 170.227 32.2442 170.88L34.16 166.262C32.6991 165.656 31.305 165.013 29.9755 164.336L27.7063 168.792ZM32.2442 170.88C33.8449 171.545 35.4195 172.169 36.9683 172.754L38.7369 168.078C37.2388 167.511 35.7132 166.906 34.16 166.262L32.2442 170.88ZM46.5931 176.007C50.0344 177.025 53.3305 177.837 56.4831 178.458L57.4501 173.553C54.4591 172.963 51.3137 172.189 48.0113 171.212L46.5931 176.007ZM66.6193 179.858C70.3167 180.134 73.7759 180.115 76.9987 179.834L76.5651 174.853C73.6306 175.108 70.4417 175.129 66.9913 174.872L66.6193 179.858ZM87.2938 177.843C90.9408 176.691 94.1459 175.125 96.907 173.233L94.0812 169.108C91.7496 170.706 88.9935 172.063 85.7874 173.076L87.2938 177.843ZM104.604 165.636C106.75 162.535 108.18 159.135 108.914 155.642L104.022 154.612C103.422 157.464 102.254 160.246 100.492 162.792L104.604 165.636ZM108.989 144.746C108.638 142.956 108.108 141.199 107.401 139.503L102.785 141.426C103.362 142.81 103.795 144.245 104.082 145.708L108.989 144.746ZM107.401 139.503C106.727 137.886 105.902 136.296 104.925 134.757L100.705 137.44C101.529 138.735 102.221 140.072 102.785 141.426L107.401 139.503ZM97.8143 126.846C95.2024 124.75 92.1577 122.945 88.6765 121.549L86.815 126.189C89.8465 127.406 92.4628 128.962 94.6849 130.745L97.8143 126.846ZM78.5748 118.903C75.3817 118.454 71.9469 118.292 68.2683 118.464L68.5009 123.458C71.8892 123.3 75.0119 123.451 77.8776 123.854L78.5748 118.903ZM58.1319 119.691C56.5157 119.999 54.861 120.364 53.1677 120.79L54.3867 125.639C55.9893 125.236 57.5495 124.892 59.0676 124.602L58.1319 119.691ZM53.1677 120.79C51.4678 121.217 49.732 121.808 47.9779 122.555L49.9375 127.155C51.4735 126.501 52.9619 125.997 54.3867 125.639L53.1677 120.79ZM38.6203 127.926C35.903 129.888 33.1906 132.205 30.5406 134.867L34.0843 138.394C36.5552 135.912 39.0628 133.774 41.5475 131.979L38.6203 127.926ZM23.6032 142.856C21.5523 145.551 19.576 148.477 17.7063 151.632L22.0076 154.181C23.7809 151.189 25.6499 148.423 27.582 145.884L23.6032 142.856ZM12.8454 160.908C11.4235 163.993 10.1031 167.246 8.90483 170.665L13.6235 172.319C14.7699 169.047 16.0311 165.941 17.3862 163.001L12.8454 160.908ZM5.88878 180.663C5.05147 183.941 4.32372 187.346 3.71959 190.877L8.64797 191.72C9.22964 188.32 9.9295 185.047 10.7332 181.9L5.88878 180.663ZM2.34914 201.231C2.02887 204.605 1.81843 208.078 1.72789 211.65L6.72629 211.777C6.81393 208.319 7.01753 204.961 7.32676 201.704L2.34914 201.231ZM1.80214 222.071C1.93326 225.451 2.1691 228.91 2.51695 232.447L7.49295 231.958C7.15463 228.517 6.92563 225.157 6.79838 221.877L1.80214 222.071ZM3.81875 242.746C4.3324 246.082 4.94352 249.482 5.6575 252.945L10.5545 251.935C9.85728 248.554 9.26116 245.237 8.76053 241.985L3.81875 242.746ZM7.98822 263.034C8.82459 266.308 9.75115 269.634 10.772 273.012L15.5582 271.566C14.5579 268.256 13.6508 264.999 12.8326 261.797L7.98822 263.034ZM13.9766 282.884C15.0892 286.093 16.2854 289.345 17.5685 292.642L22.2279 290.828C20.9671 287.589 19.7924 284.395 18.7007 281.246L13.9766 282.884ZM21.4603 302.146C22.7924 305.247 24.2004 308.386 25.6867 311.56L30.215 309.44C28.751 306.313 27.3651 303.224 26.0545 300.172L21.4603 302.146ZM30.2387 320.908C31.7568 323.91 33.3441 326.943 35.0025 330.007L39.3997 327.627C37.7631 324.604 36.1975 321.612 34.7008 318.651L30.2387 320.908ZM40.0258 339.001C41.7286 341.959 43.4969 344.945 45.3324 347.957L49.6023 345.356C47.788 342.378 46.0408 339.428 44.3591 336.507L40.0258 339.001ZM50.743 356.611C52.5801 359.476 54.4774 362.366 56.4363 365.279L60.5854 362.489C58.6466 359.605 56.7694 356.747 54.9523 353.912L50.743 356.611ZM62.2463 373.729C64.1957 376.504 66.2005 379.3 68.2617 382.116L72.2965 379.163C70.2541 376.372 68.2682 373.603 66.3376 370.855L62.2463 373.729ZM74.4169 390.365C76.4659 393.06 78.5662 395.773 80.7187 398.504L84.6458 395.409C82.5109 392.7 80.4283 390.01 78.397 387.339L74.4169 390.365ZM87.1596 406.539C88.2582 407.887 89.3694 409.239 90.4933 410.595L94.3434 407.405C93.2279 406.059 92.1253 404.717 91.0352 403.38L87.1596 406.539Z" fill="#0080FF" fill-opacity="0.22"/>
</svg>
