<svg width="570" height="176" viewBox="0 0 570 176" fill="none" xmlns="http://www.w3.org/2000/svg">
<path d="M5.688 4.28V9.88H13.208V13.432H5.688V19.352H14.168V23H1.208V0.631998H14.168V4.28H5.688ZM28.0633 5.016C30.1753 5.016 31.8819 5.688 33.1833 7.032C34.4846 8.35467 35.1353 10.2107 35.1353 12.6V23H30.6553V13.208C30.6553 11.8 30.3033 10.7227 29.5993 9.976C28.8953 9.208 27.9353 8.824 26.7193 8.824C25.4819 8.824 24.5006 9.208 23.7753 9.976C23.0713 10.7227 22.7193 11.8 22.7193 13.208V23H18.2393V5.272H22.7193V7.48C23.3166 6.712 24.0739 6.11467 24.9913 5.688C25.9299 5.24 26.9539 5.016 28.0633 5.016ZM57.3885 23.224C55.2978 23.224 53.3778 22.7333 51.6285 21.752C49.8792 20.7707 48.4925 19.416 47.4685 17.688C46.4445 15.9387 45.9325 13.9653 45.9325 11.768C45.9325 9.592 46.4445 7.64 47.4685 5.912C48.4925 4.16267 49.8792 2.79733 51.6285 1.816C53.3778 0.834666 55.2978 0.344 57.3885 0.344C59.5005 0.344 61.4205 0.834666 63.1485 1.816C64.8978 2.79733 66.2738 4.16267 67.2765 5.912C68.3005 7.64 68.8125 9.592 68.8125 11.768C68.8125 13.9653 68.3005 15.9387 67.2765 17.688C66.2738 19.416 64.8978 20.7707 63.1485 21.752C61.3992 22.7333 59.4792 23.224 57.3885 23.224ZM57.3885 19.224C58.7325 19.224 59.9165 18.9253 60.9405 18.328C61.9645 17.7093 62.7645 16.8347 63.3405 15.704C63.9165 14.5733 64.2045 13.2613 64.2045 11.768C64.2045 10.2747 63.9165 8.97333 63.3405 7.864C62.7645 6.73333 61.9645 5.86933 60.9405 5.272C59.9165 4.67467 58.7325 4.376 57.3885 4.376C56.0445 4.376 54.8498 4.67467 53.8045 5.272C52.7805 5.86933 51.9805 6.73333 51.4045 7.864C50.8285 8.97333 50.5405 10.2747 50.5405 11.768C50.5405 13.2613 50.8285 14.5733 51.4045 15.704C51.9805 16.8347 52.7805 17.7093 53.8045 18.328C54.8498 18.9253 56.0445 19.224 57.3885 19.224ZM87.6975 7.384C87.1855 6.44533 86.4815 5.73067 85.5855 5.24C84.6895 4.74933 83.6442 4.504 82.4495 4.504C81.1268 4.504 79.9535 4.80267 78.9295 5.4C77.9055 5.99733 77.1055 6.85067 76.5295 7.96C75.9535 9.06933 75.6655 10.3493 75.6655 11.8C75.6655 13.2933 75.9535 14.5947 76.5295 15.704C77.1268 16.8133 77.9482 17.6667 78.9935 18.264C80.0388 18.8613 81.2548 19.16 82.6415 19.16C84.3482 19.16 85.7455 18.712 86.8335 17.816C87.9215 16.8987 88.6362 15.6293 88.9775 14.008H81.2975V10.584H93.3935V14.488C93.0948 16.0453 92.4548 17.4853 91.4735 18.808C90.4922 20.1307 89.2228 21.1973 87.6655 22.008C86.1295 22.7973 84.4015 23.192 82.4815 23.192C80.3268 23.192 78.3748 22.712 76.6255 21.752C74.8975 20.7707 73.5322 19.416 72.5295 17.688C71.5482 15.96 71.0575 13.9973 71.0575 11.8C71.0575 9.60267 71.5482 7.64 72.5295 5.912C73.5322 4.16267 74.8975 2.808 76.6255 1.848C78.3748 0.866666 80.3162 0.375999 82.4495 0.375999C84.9668 0.375999 87.1535 0.994666 89.0095 2.232C90.8655 3.448 92.1455 5.16533 92.8495 7.384H87.6975ZM111.908 0.664V4.28H105.956V23H101.476V4.28H95.524V0.664H111.908ZM119.657 0.664V23H115.177V0.664H119.657ZM122.995 11.8C122.995 9.60267 123.486 7.64 124.467 5.912C125.47 4.16267 126.824 2.808 128.531 1.848C130.259 0.866666 132.19 0.375999 134.323 0.375999C136.819 0.375999 139.006 1.016 140.883 2.296C142.76 3.576 144.072 5.34667 144.819 7.608H139.667C139.155 6.54133 138.43 5.74133 137.491 5.208C136.574 4.67467 135.507 4.408 134.291 4.408C132.99 4.408 131.827 4.71733 130.803 5.336C129.8 5.93333 129.011 6.78667 128.435 7.896C127.88 9.00533 127.603 10.3067 127.603 11.8C127.603 13.272 127.88 14.5733 128.435 15.704C129.011 16.8133 129.8 17.6773 130.803 18.296C131.827 18.8933 132.99 19.192 134.291 19.192C135.507 19.192 136.574 18.9253 137.491 18.392C138.43 17.8373 139.155 17.0267 139.667 15.96H144.819C144.072 18.2427 142.76 20.024 140.883 21.304C139.027 22.5627 136.84 23.192 134.323 23.192C132.19 23.192 130.259 22.712 128.531 21.752C126.824 20.7707 125.47 19.416 124.467 17.688C123.486 15.96 122.995 13.9973 122.995 11.8ZM17.688 61.752C17.688 62.392 17.6453 62.968 17.56 63.48H4.6C4.70667 64.76 5.15467 65.7627 5.944 66.488C6.73333 67.2133 7.704 67.576 8.856 67.576C10.52 67.576 11.704 66.8613 12.408 65.432H17.24C16.728 67.1387 15.7467 68.5467 14.296 69.656C12.8453 70.744 11.064 71.288 8.952 71.288C7.24533 71.288 5.70933 70.9147 4.344 70.168C3 69.4 1.944 68.3227 1.176 66.936C0.429333 65.5493 0.056 63.9493 0.056 62.136C0.056 60.3013 0.429333 58.6907 1.176 57.304C1.92267 55.9173 2.968 54.8507 4.312 54.104C5.656 53.3573 7.20267 52.984 8.952 52.984C10.6373 52.984 12.1413 53.3467 13.464 54.072C14.808 54.7973 15.8427 55.832 16.568 57.176C17.3147 58.4987 17.688 60.024 17.688 61.752ZM13.048 60.472C13.0267 59.32 12.6107 58.4027 11.8 57.72C10.9893 57.016 9.99733 56.664 8.824 56.664C7.71467 56.664 6.776 57.0053 6.008 57.688C5.26133 58.3493 4.80267 59.2773 4.632 60.472H13.048ZM27.742 71.288C26.2913 71.288 24.99 71.032 23.838 70.52C22.686 69.9867 21.7687 69.272 21.086 68.376C20.4247 67.48 20.062 66.488 19.998 65.4H24.51C24.5953 66.0827 24.926 66.648 25.502 67.096C26.0993 67.544 26.8353 67.768 27.71 67.768C28.5633 67.768 29.2247 67.5973 29.694 67.256C30.1847 66.9147 30.43 66.4773 30.43 65.944C30.43 65.368 30.1313 64.9413 29.534 64.664C28.958 64.3653 28.03 64.0453 26.75 63.704C25.4273 63.384 24.3393 63.0533 23.486 62.712C22.654 62.3707 21.9287 61.848 21.31 61.144C20.7127 60.44 20.414 59.4907 20.414 58.296C20.414 57.3147 20.6913 56.4187 21.246 55.608C21.822 54.7973 22.6327 54.1573 23.678 53.688C24.7447 53.2187 25.9927 52.984 27.422 52.984C29.534 52.984 31.2193 53.5173 32.478 54.584C33.7367 55.6293 34.43 57.048 34.558 58.84H30.27C30.206 58.136 29.9073 57.5813 29.374 57.176C28.862 56.7493 28.1687 56.536 27.294 56.536C26.4833 56.536 25.854 56.6853 25.406 56.984C24.9793 57.2827 24.766 57.6987 24.766 58.232C24.766 58.8293 25.0647 59.288 25.662 59.608C26.2593 59.9067 27.1873 60.216 28.446 60.536C29.726 60.856 30.782 61.1867 31.614 61.528C32.446 61.8693 33.1607 62.4027 33.758 63.128C34.3767 63.832 34.6967 64.7707 34.718 65.944C34.718 66.968 34.43 67.8853 33.854 68.696C33.2993 69.5067 32.4887 70.1467 31.422 70.616C30.3767 71.064 29.15 71.288 27.742 71.288ZM43.6115 56.952V65.528C43.6115 66.1253 43.7502 66.5627 44.0275 66.84C44.3262 67.096 44.8168 67.224 45.4995 67.224H47.5795V71H44.7635C40.9875 71 39.0995 69.1653 39.0995 65.496V56.952H36.9875V53.272H39.0995V48.888H43.6115V53.272H47.5795V56.952H43.6115ZM49.6497 62.072C49.6497 60.28 50.0017 58.6907 50.7057 57.304C51.4311 55.9173 52.4018 54.8507 53.6178 54.104C54.8551 53.3573 56.2311 52.984 57.7458 52.984C59.0684 52.984 60.2204 53.2507 61.2018 53.784C62.2044 54.3173 63.0044 54.9893 63.6018 55.8V53.272H68.1138V71H63.6018V68.408C63.0258 69.24 62.2258 69.9333 61.2018 70.488C60.1991 71.0213 59.0364 71.288 57.7138 71.288C56.2204 71.288 54.8551 70.904 53.6178 70.136C52.4018 69.368 51.4311 68.2907 50.7057 66.904C50.0017 65.496 49.6497 63.8853 49.6497 62.072ZM63.6018 62.136C63.6018 61.048 63.3884 60.12 62.9618 59.352C62.5351 58.5627 61.9591 57.9653 61.2338 57.56C60.5084 57.1333 59.7298 56.92 58.8978 56.92C58.0658 56.92 57.2978 57.1227 56.5938 57.528C55.8898 57.9333 55.3138 58.5307 54.8658 59.32C54.4391 60.088 54.2258 61.0053 54.2258 62.072C54.2258 63.1387 54.4391 64.0773 54.8658 64.888C55.3138 65.6773 55.8898 66.2853 56.5938 66.712C57.3191 67.1387 58.0871 67.352 58.8978 67.352C59.7298 67.352 60.5084 67.1493 61.2338 66.744C61.9591 66.3173 62.5351 65.72 62.9618 64.952C63.3884 64.1627 63.6018 63.224 63.6018 62.136ZM94.5053 53.016C96.6813 53.016 98.4306 53.688 99.7533 55.032C101.097 56.3547 101.769 58.2107 101.769 60.6V71H97.2893V61.208C97.2893 59.8213 96.9373 58.7653 96.2333 58.04C95.5293 57.2933 94.5693 56.92 93.3533 56.92C92.1373 56.92 91.1666 57.2933 90.4413 58.04C89.7373 58.7653 89.3853 59.8213 89.3853 61.208V71H84.9053V61.208C84.9053 59.8213 84.5533 58.7653 83.8493 58.04C83.1453 57.2933 82.1853 56.92 80.9693 56.92C79.7319 56.92 78.7506 57.2933 78.0253 58.04C77.3213 58.7653 76.9693 59.8213 76.9693 61.208V71H72.4893V53.272H76.9693V55.416C77.5453 54.6693 78.2813 54.0827 79.1773 53.656C80.0946 53.2293 81.0973 53.016 82.1853 53.016C83.5719 53.016 84.8093 53.3147 85.8973 53.912C86.9853 54.488 87.8279 55.32 88.4253 56.408C89.0013 55.384 89.8333 54.5627 90.9213 53.944C92.0306 53.3253 93.2253 53.016 94.5053 53.016ZM113.893 71.288C112.186 71.288 110.65 70.9147 109.285 70.168C107.919 69.4 106.842 68.3227 106.053 66.936C105.285 65.5493 104.901 63.9493 104.901 62.136C104.901 60.3227 105.295 58.7227 106.085 57.336C106.895 55.9493 107.994 54.8827 109.381 54.136C110.767 53.368 112.314 52.984 114.021 52.984C115.727 52.984 117.274 53.368 118.661 54.136C120.047 54.8827 121.135 55.9493 121.925 57.336C122.735 58.7227 123.141 60.3227 123.141 62.136C123.141 63.9493 122.725 65.5493 121.892 66.936C121.082 68.3227 119.973 69.4 118.565 70.168C117.178 70.9147 115.621 71.288 113.893 71.288ZM113.893 67.384C114.703 67.384 115.461 67.192 116.165 66.808C116.89 66.4027 117.466 65.8053 117.893 65.016C118.319 64.2267 118.533 63.2667 118.533 62.136C118.533 60.4507 118.085 59.16 117.189 58.264C116.314 57.3467 115.237 56.888 113.957 56.888C112.677 56.888 111.599 57.3467 110.725 58.264C109.871 59.16 109.445 60.4507 109.445 62.136C109.445 63.8213 109.861 65.1227 110.693 66.04C111.546 66.936 112.613 67.384 113.893 67.384ZM133.211 71.288C131.76 71.288 130.459 71.032 129.307 70.52C128.155 69.9867 127.237 69.272 126.555 68.376C125.893 67.48 125.531 66.488 125.467 65.4H129.979C130.064 66.0827 130.395 66.648 130.971 67.096C131.568 67.544 132.304 67.768 133.179 67.768C134.032 67.768 134.693 67.5973 135.163 67.256C135.653 66.9147 135.899 66.4773 135.899 65.944C135.899 65.368 135.6 64.9413 135.003 64.664C134.427 64.3653 133.499 64.0453 132.219 63.704C130.896 63.384 129.808 63.0533 128.955 62.712C128.123 62.3707 127.397 61.848 126.779 61.144C126.181 60.44 125.883 59.4907 125.883 58.296C125.883 57.3147 126.16 56.4187 126.715 55.608C127.291 54.7973 128.101 54.1573 129.147 53.688C130.213 53.2187 131.461 52.984 132.891 52.984C135.003 52.984 136.688 53.5173 137.947 54.584C139.205 55.6293 139.899 57.048 140.027 58.84H135.739C135.675 58.136 135.376 57.5813 134.843 57.176C134.331 56.7493 133.637 56.536 132.763 56.536C131.952 56.536 131.323 56.6853 130.875 56.984C130.448 57.2827 130.235 57.6987 130.235 58.232C130.235 58.8293 130.533 59.288 131.131 59.608C131.728 59.9067 132.656 60.216 133.915 60.536C135.195 60.856 136.251 61.1867 137.083 61.528C137.915 61.8693 138.629 62.4027 139.227 63.128C139.845 63.832 140.165 64.7707 140.187 65.944C140.187 66.968 139.899 67.8853 139.323 68.696C138.768 69.5067 137.957 70.1467 136.891 70.616C135.845 71.064 134.619 71.288 133.211 71.288ZM150.337 62.136C150.337 60.3013 150.711 58.7013 151.457 57.336C152.204 55.9493 153.239 54.8827 154.561 54.136C155.884 53.368 157.399 52.984 159.105 52.984C161.303 52.984 163.116 53.5387 164.545 54.648C165.996 55.736 166.967 57.272 167.457 59.256H162.625C162.369 58.488 161.932 57.8907 161.313 57.464C160.716 57.016 159.969 56.792 159.073 56.792C157.793 56.792 156.78 57.2613 156.033 58.2C155.287 59.1173 154.913 60.4293 154.913 62.136C154.913 63.8213 155.287 65.1333 156.033 66.072C156.78 66.9893 157.793 67.448 159.073 67.448C160.887 67.448 162.071 66.6373 162.625 65.016H167.457C166.967 66.936 165.996 68.4613 164.545 69.592C163.095 70.7227 161.281 71.288 159.105 71.288C157.399 71.288 155.884 70.9147 154.561 70.168C153.239 69.4 152.204 68.3333 151.457 66.968C150.711 65.5813 150.337 63.9707 150.337 62.136ZM178.611 71.288C176.905 71.288 175.369 70.9147 174.003 70.168C172.638 69.4 171.561 68.3227 170.771 66.936C170.003 65.5493 169.619 63.9493 169.619 62.136C169.619 60.3227 170.014 58.7227 170.803 57.336C171.614 55.9493 172.713 54.8827 174.099 54.136C175.486 53.368 177.033 52.984 178.739 52.984C180.446 52.984 181.993 53.368 183.379 54.136C184.766 54.8827 185.854 55.9493 186.643 57.336C187.454 58.7227 187.859 60.3227 187.859 62.136C187.859 63.9493 187.443 65.5493 186.611 66.936C185.801 68.3227 184.691 69.4 183.283 70.168C181.897 70.9147 180.339 71.288 178.611 71.288ZM178.611 67.384C179.422 67.384 180.179 67.192 180.883 66.808C181.609 66.4027 182.185 65.8053 182.611 65.016C183.038 64.2267 183.251 63.2667 183.251 62.136C183.251 60.4507 182.803 59.16 181.907 58.264C181.033 57.3467 179.955 56.888 178.675 56.888C177.395 56.888 176.318 57.3467 175.443 58.264C174.59 59.16 174.163 60.4507 174.163 62.136C174.163 63.8213 174.579 65.1227 175.411 66.04C176.265 66.936 177.331 67.384 178.611 67.384ZM213.162 53.016C215.338 53.016 217.087 53.688 218.41 55.032C219.754 56.3547 220.426 58.2107 220.426 60.6V71H215.946V61.208C215.946 59.8213 215.594 58.7653 214.89 58.04C214.186 57.2933 213.226 56.92 212.01 56.92C210.794 56.92 209.823 57.2933 209.098 58.04C208.394 58.7653 208.042 59.8213 208.042 61.208V71H203.562V61.208C203.562 59.8213 203.21 58.7653 202.506 58.04C201.802 57.2933 200.842 56.92 199.626 56.92C198.388 56.92 197.407 57.2933 196.682 58.04C195.978 58.7653 195.626 59.8213 195.626 61.208V71H191.146V53.272H195.626V55.416C196.202 54.6693 196.938 54.0827 197.834 53.656C198.751 53.2293 199.754 53.016 200.842 53.016C202.228 53.016 203.466 53.3147 204.554 53.912C205.642 54.488 206.484 55.32 207.082 56.408C207.658 55.384 208.49 54.5627 209.578 53.944C210.687 53.3253 211.882 53.016 213.162 53.016ZM229.157 55.832C229.733 55.0213 230.522 54.3493 231.525 53.816C232.549 53.2613 233.711 52.984 235.013 52.984C236.527 52.984 237.893 53.3573 239.109 54.104C240.346 54.8507 241.317 55.9173 242.021 57.304C242.746 58.6693 243.109 60.2587 243.109 62.072C243.109 63.8853 242.746 65.496 242.021 66.904C241.317 68.2907 240.346 69.368 239.109 70.136C237.893 70.904 236.527 71.288 235.013 71.288C233.711 71.288 232.559 71.0213 231.557 70.488C230.575 69.9547 229.775 69.2827 229.157 68.472V79.448H224.677V53.272H229.157V55.832ZM238.533 62.072C238.533 61.0053 238.309 60.088 237.861 59.32C237.434 58.5307 236.858 57.9333 236.133 57.528C235.429 57.1227 234.661 56.92 233.829 56.92C233.018 56.92 232.25 57.1333 231.525 57.56C230.821 57.9653 230.245 58.5627 229.797 59.352C229.37 60.1413 229.157 61.0693 229.157 62.136C229.157 63.2027 229.37 64.1307 229.797 64.92C230.245 65.7093 230.821 66.3173 231.525 66.744C232.25 67.1493 233.018 67.352 233.829 67.352C234.661 67.352 235.429 67.1387 236.133 66.712C236.858 66.2853 237.434 65.6773 237.861 64.888C238.309 64.0987 238.533 63.16 238.533 62.072ZM250.844 56.024C251.42 55.0853 252.167 54.3493 253.084 53.816C254.023 53.2827 255.09 53.016 256.284 53.016V57.72H255.1C253.692 57.72 252.626 58.0507 251.9 58.712C251.196 59.3733 250.844 60.5253 250.844 62.168V71H246.364V53.272H250.844V56.024ZM267.174 71.288C265.467 71.288 263.931 70.9147 262.566 70.168C261.2 69.4 260.123 68.3227 259.334 66.936C258.566 65.5493 258.182 63.9493 258.182 62.136C258.182 60.3227 258.576 58.7227 259.366 57.336C260.176 55.9493 261.275 54.8827 262.662 54.136C264.048 53.368 265.595 52.984 267.302 52.984C269.008 52.984 270.555 53.368 271.942 54.136C273.328 54.8827 274.416 55.9493 275.206 57.336C276.016 58.7227 276.422 60.3227 276.422 62.136C276.422 63.9493 276.006 65.5493 275.174 66.936C274.363 68.3227 273.254 69.4 271.846 70.168C270.459 70.9147 268.902 71.288 267.174 71.288ZM267.174 67.384C267.984 67.384 268.742 67.192 269.446 66.808C270.171 66.4027 270.747 65.8053 271.174 65.016C271.6 64.2267 271.814 63.2667 271.814 62.136C271.814 60.4507 271.366 59.16 270.47 58.264C269.595 57.3467 268.518 56.888 267.238 56.888C265.958 56.888 264.88 57.3467 264.006 58.264C263.152 59.16 262.726 60.4507 262.726 62.136C262.726 63.8213 263.142 65.1227 263.974 66.04C264.827 66.936 265.894 67.384 267.174 67.384ZM301.724 53.016C303.9 53.016 305.649 53.688 306.972 55.032C308.316 56.3547 308.988 58.2107 308.988 60.6V71H304.508V61.208C304.508 59.8213 304.156 58.7653 303.452 58.04C302.748 57.2933 301.788 56.92 300.572 56.92C299.356 56.92 298.385 57.2933 297.66 58.04C296.956 58.7653 296.604 59.8213 296.604 61.208V71H292.124V61.208C292.124 59.8213 291.772 58.7653 291.068 58.04C290.364 57.2933 289.404 56.92 288.188 56.92C286.951 56.92 285.969 57.2933 285.244 58.04C284.54 58.7653 284.188 59.8213 284.188 61.208V71H279.708V53.272H284.188V55.416C284.764 54.6693 285.5 54.0827 286.396 53.656C287.313 53.2293 288.316 53.016 289.404 53.016C290.791 53.016 292.028 53.3147 293.116 53.912C294.204 54.488 295.047 55.32 295.644 56.408C296.22 55.384 297.052 54.5627 298.14 53.944C299.249 53.3253 300.444 53.016 301.724 53.016ZM329.719 61.752C329.719 62.392 329.677 62.968 329.591 63.48H316.631C316.738 64.76 317.186 65.7627 317.975 66.488C318.765 67.2133 319.735 67.576 320.887 67.576C322.551 67.576 323.735 66.8613 324.439 65.432H329.271C328.759 67.1387 327.778 68.5467 326.327 69.656C324.877 70.744 323.095 71.288 320.983 71.288C319.277 71.288 317.741 70.9147 316.375 70.168C315.031 69.4 313.975 68.3227 313.207 66.936C312.461 65.5493 312.087 63.9493 312.087 62.136C312.087 60.3013 312.461 58.6907 313.207 57.304C313.954 55.9173 314.999 54.8507 316.343 54.104C317.687 53.3573 319.234 52.984 320.983 52.984C322.669 52.984 324.173 53.3467 325.495 54.072C326.839 54.7973 327.874 55.832 328.599 57.176C329.346 58.4987 329.719 60.024 329.719 61.752ZM325.079 60.472C325.058 59.32 324.642 58.4027 323.831 57.72C323.021 57.016 322.029 56.664 320.855 56.664C319.746 56.664 318.807 57.0053 318.039 57.688C317.293 58.3493 316.834 59.2773 316.663 60.472H325.079ZM338.205 56.952V65.528C338.205 66.1253 338.344 66.5627 338.621 66.84C338.92 67.096 339.411 67.224 340.093 67.224H342.173V71H339.357C335.581 71 333.693 69.1653 333.693 65.496V56.952H331.581V53.272H333.693V48.888H338.205V53.272H342.173V56.952H338.205ZM347.668 51.16C346.878 51.16 346.217 50.9147 345.684 50.424C345.172 49.912 344.916 49.2827 344.916 48.536C344.916 47.7893 345.172 47.1707 345.684 46.68C346.217 46.168 346.878 45.912 347.668 45.912C348.457 45.912 349.108 46.168 349.62 46.68C350.153 47.1707 350.42 47.7893 350.42 48.536C350.42 49.2827 350.153 49.912 349.62 50.424C349.108 50.9147 348.457 51.16 347.668 51.16ZM349.876 53.272V71H345.396V53.272H349.876ZM353.15 62.072C353.15 60.28 353.502 58.6907 354.206 57.304C354.931 55.9173 355.912 54.8507 357.15 54.104C358.387 53.3573 359.763 52.984 361.278 52.984C362.43 52.984 363.528 53.24 364.574 53.752C365.619 54.2427 366.451 54.904 367.07 55.736V47.32H371.614V71H367.07V68.376C366.515 69.2507 365.736 69.9547 364.734 70.488C363.731 71.0213 362.568 71.288 361.246 71.288C359.752 71.288 358.387 70.904 357.15 70.136C355.912 69.368 354.931 68.2907 354.206 66.904C353.502 65.496 353.15 63.8853 353.15 62.072ZM367.102 62.136C367.102 61.048 366.888 60.12 366.462 59.352C366.035 58.5627 365.459 57.9653 364.734 57.56C364.008 57.1333 363.23 56.92 362.398 56.92C361.566 56.92 360.798 57.1227 360.094 57.528C359.39 57.9333 358.814 58.5307 358.366 59.32C357.939 60.088 357.726 61.0053 357.726 62.072C357.726 63.1387 357.939 64.0773 358.366 64.888C358.814 65.6773 359.39 66.2853 360.094 66.712C360.819 67.1387 361.587 67.352 362.398 67.352C363.23 67.352 364.008 67.1493 364.734 66.744C365.459 66.3173 366.035 65.72 366.462 64.952C366.888 64.1627 367.102 63.224 367.102 62.136ZM383.861 71.288C382.155 71.288 380.619 70.9147 379.253 70.168C377.888 69.4 376.811 68.3227 376.021 66.936C375.253 65.5493 374.869 63.9493 374.869 62.136C374.869 60.3227 375.264 58.7227 376.053 57.336C376.864 55.9493 377.963 54.8827 379.349 54.136C380.736 53.368 382.283 52.984 383.989 52.984C385.696 52.984 387.243 53.368 388.629 54.136C390.016 54.8827 391.104 55.9493 391.893 57.336C392.704 58.7227 393.109 60.3227 393.109 62.136C393.109 63.9493 392.693 65.5493 391.861 66.936C391.051 68.3227 389.941 69.4 388.533 70.168C387.147 70.9147 385.589 71.288 383.861 71.288ZM383.861 67.384C384.672 67.384 385.429 67.192 386.133 66.808C386.859 66.4027 387.435 65.8053 387.861 65.016C388.288 64.2267 388.501 63.2667 388.501 62.136C388.501 60.4507 388.053 59.16 387.157 58.264C386.283 57.3467 385.205 56.888 383.925 56.888C382.645 56.888 381.568 57.3467 380.693 58.264C379.84 59.16 379.413 60.4507 379.413 62.136C379.413 63.8213 379.829 65.1227 380.661 66.04C381.515 66.936 382.581 67.384 383.861 67.384ZM403.18 71.288C401.729 71.288 400.428 71.032 399.276 70.52C398.124 69.9867 397.206 69.272 396.524 68.376C395.862 67.48 395.5 66.488 395.436 65.4H399.948C400.033 66.0827 400.364 66.648 400.94 67.096C401.537 67.544 402.273 67.768 403.148 67.768C404.001 67.768 404.662 67.5973 405.132 67.256C405.622 66.9147 405.868 66.4773 405.868 65.944C405.868 65.368 405.569 64.9413 404.972 64.664C404.396 64.3653 403.468 64.0453 402.188 63.704C400.865 63.384 399.777 63.0533 398.924 62.712C398.092 62.3707 397.366 61.848 396.748 61.144C396.15 60.44 395.852 59.4907 395.852 58.296C395.852 57.3147 396.129 56.4187 396.684 55.608C397.26 54.7973 398.07 54.1573 399.116 53.688C400.182 53.2187 401.43 52.984 402.86 52.984C404.972 52.984 406.657 53.5173 407.916 54.584C409.174 55.6293 409.868 57.048 409.996 58.84H405.708C405.644 58.136 405.345 57.5813 404.812 57.176C404.3 56.7493 403.606 56.536 402.732 56.536C401.921 56.536 401.292 56.6853 400.844 56.984C400.417 57.2827 400.204 57.6987 400.204 58.232C400.204 58.8293 400.502 59.288 401.1 59.608C401.697 59.9067 402.625 60.216 403.884 60.536C405.164 60.856 406.22 61.1867 407.052 61.528C407.884 61.8693 408.598 62.4027 409.196 63.128C409.814 63.832 410.134 64.7707 410.156 65.944C410.156 66.968 409.868 67.8853 409.292 68.696C408.737 69.5067 407.926 70.1467 406.86 70.616C405.814 71.064 404.588 71.288 403.18 71.288ZM5.688 103.832C6.264 103.021 7.05333 102.349 8.056 101.816C9.08 101.261 10.2427 100.984 11.544 100.984C13.0587 100.984 14.424 101.357 15.64 102.104C16.8773 102.851 17.848 103.917 18.552 105.304C19.2773 106.669 19.64 108.259 19.64 110.072C19.64 111.885 19.2773 113.496 18.552 114.904C17.848 116.291 16.8773 117.368 15.64 118.136C14.424 118.904 13.0587 119.288 11.544 119.288C10.2427 119.288 9.09067 119.021 8.088 118.488C7.10667 117.955 6.30667 117.283 5.688 116.472V127.448H1.208V101.272H5.688V103.832ZM15.064 110.072C15.064 109.005 14.84 108.088 14.392 107.32C13.9653 106.531 13.3893 105.933 12.664 105.528C11.96 105.123 11.192 104.92 10.36 104.92C9.54933 104.92 8.78133 105.133 8.056 105.56C7.352 105.965 6.776 106.563 6.328 107.352C5.90133 108.141 5.688 109.069 5.688 110.136C5.688 111.203 5.90133 112.131 6.328 112.92C6.776 113.709 7.352 114.317 8.056 114.744C8.78133 115.149 9.54933 115.352 10.36 115.352C11.192 115.352 11.96 115.139 12.664 114.712C13.3893 114.285 13.9653 113.677 14.392 112.888C14.84 112.099 15.064 111.16 15.064 110.072ZM21.7435 110.072C21.7435 108.28 22.0955 106.691 22.7995 105.304C23.5248 103.917 24.4955 102.851 25.7115 102.104C26.9488 101.357 28.3248 100.984 29.8395 100.984C31.1622 100.984 32.3142 101.251 33.2955 101.784C34.2982 102.317 35.0982 102.989 35.6955 103.8V101.272H40.2075V119H35.6955V116.408C35.1195 117.24 34.3195 117.933 33.2955 118.488C32.2928 119.021 31.1302 119.288 29.8075 119.288C28.3142 119.288 26.9488 118.904 25.7115 118.136C24.4955 117.368 23.5248 116.291 22.7995 114.904C22.0955 113.496 21.7435 111.885 21.7435 110.072ZM35.6955 110.136C35.6955 109.048 35.4822 108.12 35.0555 107.352C34.6288 106.563 34.0528 105.965 33.3275 105.56C32.6022 105.133 31.8235 104.92 30.9915 104.92C30.1595 104.92 29.3915 105.123 28.6875 105.528C27.9835 105.933 27.4075 106.531 26.9595 107.32C26.5328 108.088 26.3195 109.005 26.3195 110.072C26.3195 111.139 26.5328 112.077 26.9595 112.888C27.4075 113.677 27.9835 114.285 28.6875 114.712C29.4128 115.139 30.1808 115.352 30.9915 115.352C31.8235 115.352 32.6022 115.149 33.3275 114.744C34.0528 114.317 34.6288 113.72 35.0555 112.952C35.4822 112.163 35.6955 111.224 35.6955 110.136ZM49.063 104.024C49.639 103.085 50.3857 102.349 51.303 101.816C52.2417 101.283 53.3083 101.016 54.503 101.016V105.72H53.319C51.911 105.72 50.8443 106.051 50.119 106.712C49.415 107.373 49.063 108.525 49.063 110.168V119H44.583V101.272H49.063V104.024ZM56.3685 110.072C56.3685 108.28 56.7205 106.691 57.4245 105.304C58.1498 103.917 59.1205 102.851 60.3365 102.104C61.5738 101.357 62.9498 100.984 64.4645 100.984C65.7872 100.984 66.9392 101.251 67.9205 101.784C68.9232 102.317 69.7232 102.989 70.3205 103.8V101.272H74.8325V119H70.3205V116.408C69.7445 117.24 68.9445 117.933 67.9205 118.488C66.9178 119.021 65.7552 119.288 64.4325 119.288C62.9392 119.288 61.5738 118.904 60.3365 118.136C59.1205 117.368 58.1498 116.291 57.4245 114.904C56.7205 113.496 56.3685 111.885 56.3685 110.072ZM70.3205 110.136C70.3205 109.048 70.1072 108.12 69.6805 107.352C69.2538 106.563 68.6778 105.965 67.9525 105.56C67.2272 105.133 66.4485 104.92 65.6165 104.92C64.7845 104.92 64.0165 105.123 63.3125 105.528C62.6085 105.933 62.0325 106.531 61.5845 107.32C61.1578 108.088 60.9445 109.005 60.9445 110.072C60.9445 111.139 61.1578 112.077 61.5845 112.888C62.0325 113.677 62.6085 114.285 63.3125 114.712C64.0378 115.139 64.8058 115.352 65.6165 115.352C66.4485 115.352 67.2272 115.149 67.9525 114.744C68.6778 114.317 69.2538 113.72 69.6805 112.952C70.1072 112.163 70.3205 111.224 70.3205 110.136ZM91.313 103.864C91.889 103.011 92.6783 102.317 93.681 101.784C94.705 101.251 95.8677 100.984 97.169 100.984C98.6837 100.984 100.049 101.357 101.265 102.104C102.502 102.851 103.473 103.917 104.177 105.304C104.902 106.669 105.265 108.259 105.265 110.072C105.265 111.885 104.902 113.496 104.177 114.904C103.473 116.291 102.502 117.368 101.265 118.136C100.049 118.904 98.6837 119.288 97.169 119.288C95.8463 119.288 94.6837 119.032 93.681 118.52C92.6997 117.987 91.9103 117.304 91.313 116.472V119H86.833V95.32H91.313V103.864ZM100.689 110.072C100.689 109.005 100.465 108.088 100.017 107.32C99.5903 106.531 99.0143 105.933 98.289 105.528C97.585 105.123 96.817 104.92 95.985 104.92C95.1743 104.92 94.4063 105.133 93.681 105.56C92.977 105.965 92.401 106.563 91.953 107.352C91.5263 108.141 91.313 109.069 91.313 110.136C91.313 111.203 91.5263 112.131 91.953 112.92C92.401 113.709 92.977 114.317 93.681 114.744C94.4063 115.149 95.1743 115.352 95.985 115.352C96.817 115.352 97.585 115.139 98.289 114.712C99.0143 114.285 99.5903 113.677 100.017 112.888C100.465 112.099 100.689 111.16 100.689 110.072ZM113.001 104.024C113.577 103.085 114.323 102.349 115.241 101.816C116.179 101.283 117.246 101.016 118.441 101.016V105.72H117.257C115.849 105.72 114.782 106.051 114.057 106.712C113.353 107.373 113.001 108.525 113.001 110.168V119H108.521V101.272H113.001V104.024ZM123.73 99.16C122.941 99.16 122.279 98.9147 121.746 98.424C121.234 97.912 120.978 97.2827 120.978 96.536C120.978 95.7893 121.234 95.1707 121.746 94.68C122.279 94.168 122.941 93.912 123.73 93.912C124.519 93.912 125.17 94.168 125.682 94.68C126.215 95.1707 126.482 95.7893 126.482 96.536C126.482 97.2827 126.215 97.912 125.682 98.424C125.17 98.9147 124.519 99.16 123.73 99.16ZM125.938 101.272V119H121.458V101.272H125.938ZM140.188 101.016C142.3 101.016 144.007 101.688 145.308 103.032C146.61 104.355 147.26 106.211 147.26 108.6V119H142.78V109.208C142.78 107.8 142.428 106.723 141.724 105.976C141.02 105.208 140.06 104.824 138.844 104.824C137.607 104.824 136.626 105.208 135.9 105.976C135.196 106.723 134.844 107.8 134.844 109.208V119H130.364V101.272H134.844V103.48C135.442 102.712 136.199 102.115 137.116 101.688C138.055 101.24 139.079 101.016 140.188 101.016ZM150.368 110.072C150.368 108.28 150.72 106.691 151.424 105.304C152.15 103.917 153.131 102.851 154.369 102.104C155.606 101.357 156.982 100.984 158.497 100.984C159.649 100.984 160.747 101.24 161.793 101.752C162.838 102.243 163.67 102.904 164.289 103.736V95.32H168.833V119H164.289V116.376C163.734 117.251 162.955 117.955 161.953 118.488C160.95 119.021 159.787 119.288 158.465 119.288C156.971 119.288 155.606 118.904 154.369 118.136C153.131 117.368 152.15 116.291 151.424 114.904C150.72 113.496 150.368 111.885 150.368 110.072ZM164.321 110.136C164.321 109.048 164.107 108.12 163.681 107.352C163.254 106.563 162.678 105.965 161.953 105.56C161.227 105.133 160.449 104.92 159.617 104.92C158.785 104.92 158.017 105.123 157.312 105.528C156.609 105.933 156.033 106.531 155.585 107.32C155.158 108.088 154.945 109.005 154.945 110.072C154.945 111.139 155.158 112.077 155.585 112.888C156.033 113.677 156.609 114.285 157.312 114.712C158.038 115.139 158.806 115.352 159.617 115.352C160.449 115.352 161.227 115.149 161.953 114.744C162.678 114.317 163.254 113.72 163.681 112.952C164.107 112.163 164.321 111.224 164.321 110.136ZM172.056 110.072C172.056 108.28 172.408 106.691 173.112 105.304C173.837 103.917 174.808 102.851 176.024 102.104C177.261 101.357 178.637 100.984 180.152 100.984C181.475 100.984 182.627 101.251 183.608 101.784C184.611 102.317 185.411 102.989 186.008 103.8V101.272H190.52V119H186.008V116.408C185.432 117.24 184.632 117.933 183.608 118.488C182.605 119.021 181.443 119.288 180.12 119.288C178.627 119.288 177.261 118.904 176.024 118.136C174.808 117.368 173.837 116.291 173.112 114.904C172.408 113.496 172.056 111.885 172.056 110.072ZM186.008 110.136C186.008 109.048 185.795 108.12 185.368 107.352C184.941 106.563 184.365 105.965 183.64 105.56C182.915 105.133 182.136 104.92 181.304 104.92C180.472 104.92 179.704 105.123 179 105.528C178.296 105.933 177.72 106.531 177.272 107.32C176.845 108.088 176.632 109.005 176.632 110.072C176.632 111.139 176.845 112.077 177.272 112.888C177.72 113.677 178.296 114.285 179 114.712C179.725 115.139 180.493 115.352 181.304 115.352C182.136 115.352 182.915 115.149 183.64 114.744C184.365 114.317 184.941 113.72 185.368 112.952C185.795 112.163 186.008 111.224 186.008 110.136ZM199.376 104.024C199.952 103.085 200.698 102.349 201.616 101.816C202.554 101.283 203.621 101.016 204.816 101.016V105.72H203.632C202.224 105.72 201.157 106.051 200.432 106.712C199.728 107.373 199.376 108.525 199.376 110.168V119H194.896V101.272H199.376V104.024ZM213.049 104.952V113.528C213.049 114.125 213.188 114.563 213.465 114.84C213.764 115.096 214.254 115.224 214.937 115.224H217.017V119H214.201C210.425 119 208.537 117.165 208.537 113.496V104.952H206.425V101.272H208.537V96.888H213.049V101.272H217.017V104.952H213.049ZM236.719 109.752C236.719 110.392 236.677 110.968 236.591 111.48H223.631C223.738 112.76 224.186 113.763 224.975 114.488C225.765 115.213 226.735 115.576 227.887 115.576C229.551 115.576 230.735 114.861 231.439 113.432H236.271C235.759 115.139 234.778 116.547 233.327 117.656C231.877 118.744 230.095 119.288 227.983 119.288C226.277 119.288 224.741 118.915 223.375 118.168C222.031 117.4 220.975 116.323 220.207 114.936C219.461 113.549 219.087 111.949 219.087 110.136C219.087 108.301 219.461 106.691 220.207 105.304C220.954 103.917 221.999 102.851 223.343 102.104C224.687 101.357 226.234 100.984 227.983 100.984C229.669 100.984 231.173 101.347 232.495 102.072C233.839 102.797 234.874 103.832 235.599 105.176C236.346 106.499 236.719 108.024 236.719 109.752ZM232.079 108.472C232.058 107.32 231.642 106.403 230.831 105.72C230.021 105.016 229.029 104.664 227.855 104.664C226.746 104.664 225.807 105.005 225.039 105.688C224.293 106.349 223.834 107.277 223.663 108.472H232.079ZM264.094 109.752C264.094 110.392 264.052 110.968 263.966 111.48H251.006C251.113 112.76 251.561 113.763 252.35 114.488C253.14 115.213 254.11 115.576 255.262 115.576C256.926 115.576 258.11 114.861 258.814 113.432H263.646C263.134 115.139 262.153 116.547 260.702 117.656C259.252 118.744 257.47 119.288 255.358 119.288C253.652 119.288 252.116 118.915 250.75 118.168C249.406 117.4 248.35 116.323 247.582 114.936C246.836 113.549 246.462 111.949 246.462 110.136C246.462 108.301 246.836 106.691 247.582 105.304C248.329 103.917 249.374 102.851 250.718 102.104C252.062 101.357 253.609 100.984 255.358 100.984C257.044 100.984 258.548 101.347 259.87 102.072C261.214 102.797 262.249 103.832 262.974 105.176C263.721 106.499 264.094 108.024 264.094 109.752ZM259.454 108.472C259.433 107.32 259.017 106.403 258.206 105.72C257.396 105.016 256.404 104.664 255.23 104.664C254.121 104.664 253.182 105.005 252.414 105.688C251.668 106.349 251.209 107.277 251.038 108.472H259.454ZM271.844 95.32V119H267.364V95.32H271.844ZM305.912 101.016C308.088 101.016 309.837 101.688 311.16 103.032C312.504 104.355 313.176 106.211 313.176 108.6V119H308.696V109.208C308.696 107.821 308.344 106.765 307.64 106.04C306.936 105.293 305.976 104.92 304.76 104.92C303.544 104.92 302.573 105.293 301.848 106.04C301.144 106.765 300.792 107.821 300.792 109.208V119H296.312V109.208C296.312 107.821 295.96 106.765 295.256 106.04C294.552 105.293 293.592 104.92 292.376 104.92C291.138 104.92 290.157 105.293 289.432 106.04C288.728 106.765 288.376 107.821 288.376 109.208V119H283.896V101.272H288.376V103.416C288.952 102.669 289.688 102.083 290.584 101.656C291.501 101.229 292.504 101.016 293.592 101.016C294.978 101.016 296.216 101.315 297.304 101.912C298.392 102.488 299.234 103.32 299.832 104.408C300.408 103.384 301.24 102.563 302.328 101.944C303.437 101.325 304.632 101.016 305.912 101.016ZM333.907 109.752C333.907 110.392 333.864 110.968 333.779 111.48H320.819C320.925 112.76 321.373 113.763 322.163 114.488C322.952 115.213 323.923 115.576 325.075 115.576C326.739 115.576 327.923 114.861 328.627 113.432H333.459C332.947 115.139 331.965 116.547 330.515 117.656C329.064 118.744 327.283 119.288 325.171 119.288C323.464 119.288 321.928 118.915 320.563 118.168C319.219 117.4 318.163 116.323 317.395 114.936C316.648 113.549 316.275 111.949 316.275 110.136C316.275 108.301 316.648 106.691 317.395 105.304C318.141 103.917 319.187 102.851 320.531 102.104C321.875 101.357 323.421 100.984 325.171 100.984C326.856 100.984 328.36 101.347 329.683 102.072C331.027 102.797 332.061 103.832 332.787 105.176C333.533 106.499 333.907 108.024 333.907 109.752ZM329.267 108.472C329.245 107.32 328.829 106.403 328.019 105.72C327.208 105.016 326.216 104.664 325.043 104.664C323.933 104.664 322.995 105.005 322.227 105.688C321.48 106.349 321.021 107.277 320.851 108.472H329.267ZM339.449 99.16C338.638 99.16 337.966 98.9147 337.433 98.424C336.921 97.912 336.665 97.2827 336.665 96.536C336.665 95.7893 336.921 95.1707 337.433 94.68C337.966 94.168 338.638 93.912 339.449 93.912C340.238 93.912 340.889 94.168 341.401 94.68C341.913 95.1707 342.169 95.7893 342.169 96.536C342.169 97.2827 341.913 97.912 341.401 98.424C340.889 98.9147 340.238 99.16 339.449 99.16ZM341.657 121.912C341.657 123.875 341.166 125.283 340.185 126.136C339.225 127.011 337.838 127.448 336.025 127.448H334.041V123.64H335.321C336.003 123.64 336.483 123.501 336.761 123.224C337.038 122.968 337.177 122.541 337.177 121.944V101.272H341.657V121.912ZM353.955 119.288C352.248 119.288 350.712 118.915 349.347 118.168C347.982 117.4 346.904 116.323 346.115 114.936C345.347 113.549 344.963 111.949 344.963 110.136C344.963 108.323 345.358 106.723 346.147 105.336C346.958 103.949 348.056 102.883 349.443 102.136C350.83 101.368 352.376 100.984 354.083 100.984C355.79 100.984 357.336 101.368 358.723 102.136C360.11 102.883 361.198 103.949 361.987 105.336C362.798 106.723 363.203 108.323 363.203 110.136C363.203 111.949 362.787 113.549 361.955 114.936C361.144 116.323 360.035 117.4 358.627 118.168C357.24 118.915 355.683 119.288 353.955 119.288ZM353.955 115.384C354.766 115.384 355.523 115.192 356.227 114.808C356.952 114.403 357.528 113.805 357.955 113.016C358.382 112.227 358.595 111.267 358.595 110.136C358.595 108.451 358.147 107.16 357.251 106.264C356.376 105.347 355.299 104.888 354.019 104.888C352.739 104.888 351.662 105.347 350.787 106.264C349.934 107.16 349.507 108.451 349.507 110.136C349.507 111.821 349.923 113.123 350.755 114.04C351.608 114.936 352.675 115.384 353.955 115.384ZM370.969 104.024C371.545 103.085 372.292 102.349 373.209 101.816C374.148 101.283 375.215 101.016 376.409 101.016V105.72H375.225C373.817 105.72 372.751 106.051 372.025 106.712C371.321 107.373 370.969 108.525 370.969 110.168V119H366.489V101.272H370.969V104.024ZM7.992 167.288C6.54133 167.288 5.24 167.032 4.088 166.52C2.936 165.987 2.01867 165.272 1.336 164.376C0.674667 163.48 0.312 162.488 0.248 161.4H4.76C4.84533 162.083 5.176 162.648 5.752 163.096C6.34933 163.544 7.08533 163.768 7.96 163.768C8.81333 163.768 9.47467 163.597 9.944 163.256C10.4347 162.915 10.68 162.477 10.68 161.944C10.68 161.368 10.3813 160.941 9.784 160.664C9.208 160.365 8.28 160.045 7 159.704C5.67733 159.384 4.58933 159.053 3.736 158.712C2.904 158.371 2.17867 157.848 1.56 157.144C0.962667 156.44 0.664 155.491 0.664 154.296C0.664 153.315 0.941333 152.419 1.496 151.608C2.072 150.797 2.88267 150.157 3.928 149.688C4.99467 149.219 6.24267 148.984 7.672 148.984C9.784 148.984 11.4693 149.517 12.728 150.584C13.9867 151.629 14.68 153.048 14.808 154.84H10.52C10.456 154.136 10.1573 153.581 9.624 153.176C9.112 152.749 8.41867 152.536 7.544 152.536C6.73333 152.536 6.104 152.685 5.656 152.984C5.22933 153.283 5.016 153.699 5.016 154.232C5.016 154.829 5.31467 155.288 5.912 155.608C6.50933 155.907 7.43733 156.216 8.696 156.536C9.976 156.856 11.032 157.187 11.864 157.528C12.696 157.869 13.4107 158.403 14.008 159.128C14.6267 159.832 14.9467 160.771 14.968 161.944C14.968 162.968 14.68 163.885 14.104 164.696C13.5493 165.507 12.7387 166.147 11.672 166.616C10.6267 167.064 9.4 167.288 7.992 167.288ZM35.1255 157.752C35.1255 158.392 35.0828 158.968 34.9975 159.48H22.0375C22.1442 160.76 22.5922 161.763 23.3815 162.488C24.1708 163.213 25.1415 163.576 26.2935 163.576C27.9575 163.576 29.1415 162.861 29.8455 161.432H34.6775C34.1655 163.139 33.1842 164.547 31.7335 165.656C30.2828 166.744 28.5015 167.288 26.3895 167.288C24.6828 167.288 23.1468 166.915 21.7815 166.168C20.4375 165.4 19.3815 164.323 18.6135 162.936C17.8668 161.549 17.4935 159.949 17.4935 158.136C17.4935 156.301 17.8668 154.691 18.6135 153.304C19.3602 151.917 20.4055 150.851 21.7495 150.104C23.0935 149.357 24.6402 148.984 26.3895 148.984C28.0748 148.984 29.5788 149.347 30.9015 150.072C32.2455 150.797 33.2802 151.832 34.0055 153.176C34.7522 154.499 35.1255 156.024 35.1255 157.752ZM30.4855 156.472C30.4642 155.32 30.0482 154.403 29.2375 153.72C28.4268 153.016 27.4348 152.664 26.2615 152.664C25.1522 152.664 24.2135 153.005 23.4455 153.688C22.6988 154.349 22.2402 155.277 22.0695 156.472H30.4855ZM42.8755 152.024C43.4515 151.085 44.1982 150.349 45.1155 149.816C46.0542 149.283 47.1208 149.016 48.3155 149.016V153.72H47.1315C45.7235 153.72 44.6568 154.051 43.9315 154.712C43.2275 155.373 42.8755 156.525 42.8755 158.168V167H38.3955V149.272H42.8755V152.024ZM58.725 162.872L63.205 149.272H67.973L61.413 167H55.973L49.445 149.272H54.245L58.725 162.872ZM72.7613 147.16C71.9719 147.16 71.3106 146.915 70.7773 146.424C70.2653 145.912 70.0093 145.283 70.0093 144.536C70.0093 143.789 70.2653 143.171 70.7773 142.68C71.3106 142.168 71.9719 141.912 72.7613 141.912C73.5506 141.912 74.2013 142.168 74.7133 142.68C75.2466 143.171 75.5133 143.789 75.5133 144.536C75.5133 145.283 75.2466 145.912 74.7133 146.424C74.2013 146.915 73.5506 147.16 72.7613 147.16ZM74.9693 149.272V167H70.4893V149.272H74.9693ZM78.2435 158.136C78.2435 156.301 78.6168 154.701 79.3635 153.336C80.1102 151.949 81.1448 150.883 82.4675 150.136C83.7902 149.368 85.3048 148.984 87.0115 148.984C89.2088 148.984 91.0222 149.539 92.4515 150.648C93.9022 151.736 94.8728 153.272 95.3635 155.256H90.5315C90.2755 154.488 89.8382 153.891 89.2195 153.464C88.6222 153.016 87.8755 152.792 86.9795 152.792C85.6995 152.792 84.6862 153.261 83.9395 154.2C83.1928 155.117 82.8195 156.429 82.8195 158.136C82.8195 159.821 83.1928 161.133 83.9395 162.072C84.6862 162.989 85.6995 163.448 86.9795 163.448C88.7928 163.448 89.9768 162.637 90.5315 161.016H95.3635C94.8728 162.936 93.9022 164.461 92.4515 165.592C91.0008 166.723 89.1875 167.288 87.0115 167.288C85.3048 167.288 83.7902 166.915 82.4675 166.168C81.1448 165.4 80.1102 164.333 79.3635 162.968C78.6168 161.581 78.2435 159.971 78.2435 158.136ZM100.918 147.16C100.128 147.16 99.4668 146.915 98.9335 146.424C98.4215 145.912 98.1655 145.283 98.1655 144.536C98.1655 143.789 98.4215 143.171 98.9335 142.68C99.4668 142.168 100.128 141.912 100.918 141.912C101.707 141.912 102.358 142.168 102.87 142.68C103.403 143.171 103.67 143.789 103.67 144.536C103.67 145.283 103.403 145.912 102.87 146.424C102.358 146.915 101.707 147.16 100.918 147.16ZM103.126 149.272V167H98.6455V149.272H103.126ZM115.424 167.288C113.717 167.288 112.181 166.915 110.816 166.168C109.45 165.4 108.373 164.323 107.584 162.936C106.816 161.549 106.432 159.949 106.432 158.136C106.432 156.323 106.826 154.723 107.616 153.336C108.426 151.949 109.525 150.883 110.912 150.136C112.298 149.368 113.845 148.984 115.552 148.984C117.258 148.984 118.805 149.368 120.192 150.136C121.578 150.883 122.666 151.949 123.456 153.336C124.266 154.723 124.672 156.323 124.672 158.136C124.672 159.949 124.256 161.549 123.424 162.936C122.613 164.323 121.504 165.4 120.096 166.168C118.709 166.915 117.152 167.288 115.424 167.288ZM115.424 163.384C116.234 163.384 116.992 163.192 117.696 162.808C118.421 162.403 118.997 161.805 119.424 161.016C119.85 160.227 120.064 159.267 120.064 158.136C120.064 156.451 119.616 155.16 118.72 154.264C117.845 153.347 116.768 152.888 115.488 152.888C114.208 152.888 113.13 153.347 112.256 154.264C111.402 155.16 110.976 156.451 110.976 158.136C110.976 159.821 111.392 161.123 112.224 162.04C113.077 162.936 114.144 163.384 115.424 163.384ZM134.431 158.072C134.431 156.28 134.783 154.691 135.487 153.304C136.212 151.917 137.194 150.851 138.431 150.104C139.668 149.357 141.044 148.984 142.559 148.984C143.711 148.984 144.81 149.24 145.855 149.752C146.9 150.243 147.732 150.904 148.351 151.736V143.32H152.895V167H148.351V164.376C147.796 165.251 147.018 165.955 146.015 166.488C145.012 167.021 143.85 167.288 142.527 167.288C141.034 167.288 139.668 166.904 138.431 166.136C137.194 165.368 136.212 164.291 135.487 162.904C134.783 161.496 134.431 159.885 134.431 158.072ZM148.383 158.136C148.383 157.048 148.17 156.12 147.743 155.352C147.316 154.563 146.74 153.965 146.015 153.56C145.29 153.133 144.511 152.92 143.679 152.92C142.847 152.92 142.079 153.123 141.375 153.528C140.671 153.933 140.095 154.531 139.647 155.32C139.22 156.088 139.007 157.005 139.007 158.072C139.007 159.139 139.22 160.077 139.647 160.888C140.095 161.677 140.671 162.285 141.375 162.712C142.1 163.139 142.868 163.352 143.679 163.352C144.511 163.352 145.29 163.149 146.015 162.744C146.74 162.317 147.316 161.72 147.743 160.952C148.17 160.163 148.383 159.224 148.383 158.136ZM173.751 157.752C173.751 158.392 173.708 158.968 173.623 159.48H160.663C160.769 160.76 161.217 161.763 162.007 162.488C162.796 163.213 163.767 163.576 164.919 163.576C166.583 163.576 167.767 162.861 168.471 161.432H173.303C172.791 163.139 171.809 164.547 170.359 165.656C168.908 166.744 167.127 167.288 165.015 167.288C163.308 167.288 161.772 166.915 160.407 166.168C159.063 165.4 158.007 164.323 157.239 162.936C156.492 161.549 156.118 159.949 156.118 158.136C156.118 156.301 156.492 154.691 157.239 153.304C157.985 151.917 159.031 150.851 160.375 150.104C161.719 149.357 163.265 148.984 165.015 148.984C166.7 148.984 168.204 149.347 169.527 150.072C170.871 150.797 171.905 151.832 172.631 153.176C173.377 154.499 173.751 156.024 173.751 157.752ZM169.111 156.472C169.089 155.32 168.673 154.403 167.863 153.72C167.052 153.016 166.06 152.664 164.887 152.664C163.777 152.664 162.839 153.005 162.071 153.688C161.324 154.349 160.865 155.277 160.695 156.472H169.111ZM189.126 151.832C189.702 151.021 190.491 150.349 191.494 149.816C192.518 149.261 193.68 148.984 194.982 148.984C196.496 148.984 197.862 149.357 199.078 150.104C200.315 150.851 201.286 151.917 201.99 153.304C202.715 154.669 203.078 156.259 203.078 158.072C203.078 159.885 202.715 161.496 201.99 162.904C201.286 164.291 200.315 165.368 199.078 166.136C197.862 166.904 196.496 167.288 194.982 167.288C193.68 167.288 192.528 167.021 191.526 166.488C190.544 165.955 189.744 165.283 189.126 164.472V175.448H184.646V149.272H189.126V151.832ZM198.502 158.072C198.502 157.005 198.278 156.088 197.83 155.32C197.403 154.531 196.827 153.933 196.102 153.528C195.398 153.123 194.63 152.92 193.798 152.92C192.987 152.92 192.219 153.133 191.494 153.56C190.79 153.965 190.214 154.563 189.766 155.352C189.339 156.141 189.126 157.069 189.126 158.136C189.126 159.203 189.339 160.131 189.766 160.92C190.214 161.709 190.79 162.317 191.494 162.744C192.219 163.149 192.987 163.352 193.798 163.352C194.63 163.352 195.398 163.139 196.102 162.712C196.827 162.285 197.403 161.677 197.83 160.888C198.278 160.099 198.502 159.16 198.502 158.072ZM210.813 143.32V167H206.333V143.32H210.813ZM214.087 158.072C214.087 156.28 214.439 154.691 215.143 153.304C215.869 151.917 216.839 150.851 218.055 150.104C219.293 149.357 220.669 148.984 222.183 148.984C223.506 148.984 224.658 149.251 225.639 149.784C226.642 150.317 227.442 150.989 228.039 151.8V149.272H232.551V167H228.039V164.408C227.463 165.24 226.663 165.933 225.639 166.488C224.637 167.021 223.474 167.288 222.151 167.288C220.658 167.288 219.293 166.904 218.055 166.136C216.839 165.368 215.869 164.291 215.143 162.904C214.439 161.496 214.087 159.885 214.087 158.072ZM228.039 158.136C228.039 157.048 227.826 156.12 227.399 155.352C226.973 154.563 226.397 153.965 225.671 153.56C224.946 153.133 224.167 152.92 223.335 152.92C222.503 152.92 221.735 153.123 221.031 153.528C220.327 153.933 219.751 154.531 219.303 155.32C218.877 156.088 218.663 157.005 218.663 158.072C218.663 159.139 218.877 160.077 219.303 160.888C219.751 161.677 220.327 162.285 221.031 162.712C221.757 163.139 222.525 163.352 223.335 163.352C224.167 163.352 224.946 163.149 225.671 162.744C226.397 162.317 226.973 161.72 227.399 160.952C227.826 160.163 228.039 159.224 228.039 158.136ZM242.143 152.952V161.528C242.143 162.125 242.281 162.563 242.559 162.84C242.857 163.096 243.348 163.224 244.031 163.224H246.111V167H243.295C239.519 167 237.631 165.165 237.631 161.496V152.952H235.519V149.272H237.631V144.888H242.143V149.272H246.111V152.952H242.143ZM248.181 158.072C248.181 156.28 248.533 154.691 249.237 153.304C249.962 151.917 250.933 150.851 252.149 150.104C253.386 149.357 254.762 148.984 256.277 148.984C257.6 148.984 258.752 149.251 259.733 149.784C260.736 150.317 261.536 150.989 262.133 151.8V149.272H266.645V167H262.133V164.408C261.557 165.24 260.757 165.933 259.733 166.488C258.73 167.021 257.568 167.288 256.245 167.288C254.752 167.288 253.386 166.904 252.149 166.136C250.933 165.368 249.962 164.291 249.237 162.904C248.533 161.496 248.181 159.885 248.181 158.072ZM262.133 158.136C262.133 157.048 261.92 156.12 261.493 155.352C261.066 154.563 260.49 153.965 259.765 153.56C259.04 153.133 258.261 152.92 257.429 152.92C256.597 152.92 255.829 153.123 255.125 153.528C254.421 153.933 253.845 154.531 253.397 155.32C252.97 156.088 252.757 157.005 252.757 158.072C252.757 159.139 252.97 160.077 253.397 160.888C253.845 161.677 254.421 162.285 255.125 162.712C255.85 163.139 256.618 163.352 257.429 163.352C258.261 163.352 259.04 163.149 259.765 162.744C260.49 162.317 261.066 161.72 261.493 160.952C261.92 160.163 262.133 159.224 262.133 158.136ZM279.149 152.952H276.045V167H271.501V152.952H269.485V149.272H271.501V148.376C271.501 146.2 272.119 144.6 273.357 143.576C274.594 142.552 276.461 142.072 278.957 142.136V145.912C277.869 145.891 277.111 146.072 276.685 146.456C276.258 146.84 276.045 147.533 276.045 148.536V149.272H279.149V152.952ZM289.924 167.288C288.217 167.288 286.681 166.915 285.316 166.168C283.95 165.4 282.873 164.323 282.084 162.936C281.316 161.549 280.932 159.949 280.932 158.136C280.932 156.323 281.326 154.723 282.116 153.336C282.926 151.949 284.025 150.883 285.412 150.136C286.798 149.368 288.345 148.984 290.052 148.984C291.758 148.984 293.305 149.368 294.692 150.136C296.078 150.883 297.166 151.949 297.956 153.336C298.766 154.723 299.172 156.323 299.172 158.136C299.172 159.949 298.756 161.549 297.924 162.936C297.113 164.323 296.004 165.4 294.596 166.168C293.209 166.915 291.652 167.288 289.924 167.288ZM289.924 163.384C290.734 163.384 291.492 163.192 292.196 162.808C292.921 162.403 293.497 161.805 293.924 161.016C294.35 160.227 294.564 159.267 294.564 158.136C294.564 156.451 294.116 155.16 293.22 154.264C292.345 153.347 291.268 152.888 289.988 152.888C288.708 152.888 287.63 153.347 286.756 154.264C285.902 155.16 285.476 156.451 285.476 158.136C285.476 159.821 285.892 161.123 286.724 162.04C287.577 162.936 288.644 163.384 289.924 163.384ZM306.938 152.024C307.514 151.085 308.261 150.349 309.178 149.816C310.117 149.283 311.183 149.016 312.378 149.016V153.72H311.194C309.786 153.72 308.719 154.051 307.994 154.712C307.29 155.373 306.938 156.525 306.938 158.168V167H302.458V149.272H306.938V152.024ZM337.412 149.016C339.588 149.016 341.337 149.688 342.66 151.032C344.004 152.355 344.676 154.211 344.676 156.6V167H340.196V157.208C340.196 155.821 339.844 154.765 339.14 154.04C338.436 153.293 337.476 152.92 336.26 152.92C335.044 152.92 334.073 153.293 333.348 154.04C332.644 154.765 332.292 155.821 332.292 157.208V167H327.812V157.208C327.812 155.821 327.46 154.765 326.756 154.04C326.052 153.293 325.092 152.92 323.876 152.92C322.638 152.92 321.657 153.293 320.932 154.04C320.228 154.765 319.876 155.821 319.876 157.208V167H315.396V149.272H319.876V151.416C320.452 150.669 321.188 150.083 322.084 149.656C323.001 149.229 324.004 149.016 325.092 149.016C326.478 149.016 327.716 149.315 328.804 149.912C329.892 150.488 330.734 151.32 331.332 152.408C331.908 151.384 332.74 150.563 333.828 149.944C334.937 149.325 336.132 149.016 337.412 149.016ZM347.775 158.072C347.775 156.28 348.127 154.691 348.831 153.304C349.556 151.917 350.527 150.851 351.743 150.104C352.98 149.357 354.356 148.984 355.871 148.984C357.193 148.984 358.345 149.251 359.327 149.784C360.329 150.317 361.129 150.989 361.727 151.8V149.272H366.239V167H361.727V164.408C361.151 165.24 360.351 165.933 359.327 166.488C358.324 167.021 357.161 167.288 355.839 167.288C354.345 167.288 352.98 166.904 351.743 166.136C350.527 165.368 349.556 164.291 348.831 162.904C348.127 161.496 347.775 159.885 347.775 158.072ZM361.727 158.136C361.727 157.048 361.513 156.12 361.087 155.352C360.66 154.563 360.084 153.965 359.359 153.56C358.633 153.133 357.855 152.92 357.023 152.92C356.191 152.92 355.423 153.123 354.719 153.528C354.015 153.933 353.439 154.531 352.991 155.32C352.564 156.088 352.351 157.005 352.351 158.072C352.351 159.139 352.564 160.077 352.991 160.888C353.439 161.677 354.015 162.285 354.719 162.712C355.444 163.139 356.212 163.352 357.023 163.352C357.855 163.352 358.633 163.149 359.359 162.744C360.084 162.317 360.66 161.72 361.087 160.952C361.513 160.163 361.727 159.224 361.727 158.136Z" fill="white"/>
<path d="M382.719 151.832C383.295 151.021 384.085 150.349 385.087 149.816C386.111 149.261 387.274 148.984 388.575 148.984C390.09 148.984 391.455 149.357 392.671 150.104C393.909 150.851 394.879 151.917 395.583 153.304C396.309 154.669 396.671 156.259 396.671 158.072C396.671 159.885 396.309 161.496 395.583 162.904C394.879 164.291 393.909 165.368 392.671 166.136C391.455 166.904 390.09 167.288 388.575 167.288C387.274 167.288 386.122 167.021 385.119 166.488C384.138 165.955 383.338 165.283 382.719 164.472V175.448H378.239V149.272H382.719V151.832ZM392.095 158.072C392.095 157.005 391.871 156.088 391.423 155.32C390.997 154.531 390.421 153.933 389.695 153.528C388.991 153.123 388.223 152.92 387.391 152.92C386.581 152.92 385.813 153.133 385.087 153.56C384.383 153.965 383.807 154.563 383.359 155.352C382.933 156.141 382.719 157.069 382.719 158.136C382.719 159.203 382.933 160.131 383.359 160.92C383.807 161.709 384.383 162.317 385.087 162.744C385.813 163.149 386.581 163.352 387.391 163.352C388.223 163.352 388.991 163.139 389.695 162.712C390.421 162.285 390.997 161.677 391.423 160.888C391.871 160.099 392.095 159.16 392.095 158.072ZM407.799 167.288C406.092 167.288 404.556 166.915 403.191 166.168C401.825 165.4 400.748 164.323 399.959 162.936C399.191 161.549 398.807 159.949 398.807 158.136C398.807 156.323 399.201 154.723 399.991 153.336C400.801 151.949 401.9 150.883 403.287 150.136C404.673 149.368 406.22 148.984 407.927 148.984C409.633 148.984 411.18 149.368 412.567 150.136C413.953 150.883 415.041 151.949 415.831 153.336C416.641 154.723 417.047 156.323 417.047 158.136C417.047 159.949 416.631 161.549 415.799 162.936C414.988 164.323 413.879 165.4 412.471 166.168C411.084 166.915 409.527 167.288 407.799 167.288ZM407.799 163.384C408.609 163.384 409.367 163.192 410.071 162.808C410.796 162.403 411.372 161.805 411.799 161.016C412.225 160.227 412.439 159.267 412.439 158.136C412.439 156.451 411.991 155.16 411.095 154.264C410.22 153.347 409.143 152.888 407.863 152.888C406.583 152.888 405.505 153.347 404.631 154.264C403.777 155.16 403.351 156.451 403.351 158.136C403.351 159.821 403.767 161.123 404.599 162.04C405.452 162.936 406.519 163.384 407.799 163.384ZM424.813 152.024C425.389 151.085 426.136 150.349 427.053 149.816C427.992 149.283 429.058 149.016 430.253 149.016V153.72H429.069C427.661 153.72 426.594 154.051 425.869 154.712C425.165 155.373 424.813 156.525 424.813 158.168V167H420.333V149.272H424.813V152.024ZM438.487 152.952V161.528C438.487 162.125 438.625 162.563 438.903 162.84C439.201 163.096 439.692 163.224 440.375 163.224H442.455V167H439.639C435.863 167 433.975 165.165 433.975 161.496V152.952H431.863V149.272H433.975V144.888H438.487V149.272H442.455V152.952H438.487ZM444.525 158.072C444.525 156.28 444.877 154.691 445.581 153.304C446.306 151.917 447.277 150.851 448.493 150.104C449.73 149.357 451.106 148.984 452.621 148.984C453.943 148.984 455.095 149.251 456.077 149.784C457.079 150.317 457.879 150.989 458.477 151.8V149.272H462.989V167H458.477V164.408C457.901 165.24 457.101 165.933 456.077 166.488C455.074 167.021 453.911 167.288 452.589 167.288C451.095 167.288 449.73 166.904 448.493 166.136C447.277 165.368 446.306 164.291 445.581 162.904C444.877 161.496 444.525 159.885 444.525 158.072ZM458.477 158.136C458.477 157.048 458.263 156.12 457.837 155.352C457.41 154.563 456.834 153.965 456.109 153.56C455.383 153.133 454.605 152.92 453.773 152.92C452.941 152.92 452.173 153.123 451.469 153.528C450.765 153.933 450.189 154.531 449.741 155.32C449.314 156.088 449.101 157.005 449.101 158.072C449.101 159.139 449.314 160.077 449.741 160.888C450.189 161.677 450.765 162.285 451.469 162.712C452.194 163.139 452.962 163.352 453.773 163.352C454.605 163.352 455.383 163.149 456.109 162.744C456.834 162.317 457.41 161.72 457.837 160.952C458.263 160.163 458.477 159.224 458.477 158.136ZM475.492 152.952H472.388V167H467.844V152.952H465.828V149.272H467.844V148.376C467.844 146.2 468.463 144.6 469.7 143.576C470.938 142.552 472.804 142.072 475.3 142.136V145.912C474.212 145.891 473.455 146.072 473.028 146.456C472.602 146.84 472.388 147.533 472.388 148.536V149.272H475.492V152.952ZM480.668 147.16C479.878 147.16 479.217 146.915 478.684 146.424C478.172 145.912 477.916 145.283 477.916 144.536C477.916 143.789 478.172 143.171 478.684 142.68C479.217 142.168 479.878 141.912 480.668 141.912C481.457 141.912 482.108 142.168 482.62 142.68C483.153 143.171 483.42 143.789 483.42 144.536C483.42 145.283 483.153 145.912 482.62 146.424C482.108 146.915 481.457 147.16 480.668 147.16ZM482.876 149.272V167H478.396V149.272H482.876ZM491.782 152.024C492.358 151.085 493.104 150.349 494.022 149.816C494.96 149.283 496.027 149.016 497.222 149.016V153.72H496.038C494.63 153.72 493.563 154.051 492.838 154.712C492.134 155.373 491.782 156.525 491.782 158.168V167H487.302V149.272H491.782V152.024ZM522.255 149.016C524.431 149.016 526.181 149.688 527.503 151.032C528.847 152.355 529.519 154.211 529.519 156.6V167H525.039V157.208C525.039 155.821 524.687 154.765 523.983 154.04C523.279 153.293 522.319 152.92 521.103 152.92C519.887 152.92 518.917 153.293 518.191 154.04C517.487 154.765 517.135 155.821 517.135 157.208V167H512.655V157.208C512.655 155.821 512.303 154.765 511.599 154.04C510.895 153.293 509.935 152.92 508.719 152.92C507.482 152.92 506.501 153.293 505.775 154.04C505.071 154.765 504.719 155.821 504.719 157.208V167H500.239V149.272H504.719V151.416C505.295 150.669 506.031 150.083 506.927 149.656C507.845 149.229 508.847 149.016 509.935 149.016C511.322 149.016 512.559 149.315 513.647 149.912C514.735 150.488 515.578 151.32 516.175 152.408C516.751 151.384 517.583 150.563 518.671 149.944C519.781 149.325 520.975 149.016 522.255 149.016ZM532.618 158.072C532.618 156.28 532.97 154.691 533.674 153.304C534.4 151.917 535.371 150.851 536.587 150.104C537.824 149.357 539.2 148.984 540.715 148.984C542.037 148.984 543.189 149.251 544.171 149.784C545.173 150.317 545.973 150.989 546.571 151.8V149.272H551.083V167H546.571V164.408C545.995 165.24 545.195 165.933 544.171 166.488C543.168 167.021 542.005 167.288 540.683 167.288C539.189 167.288 537.824 166.904 536.587 166.136C535.371 165.368 534.4 164.291 533.674 162.904C532.97 161.496 532.618 159.885 532.618 158.072ZM546.571 158.136C546.571 157.048 546.357 156.12 545.931 155.352C545.504 154.563 544.928 153.965 544.203 153.56C543.477 153.133 542.699 152.92 541.867 152.92C541.035 152.92 540.267 153.123 539.562 153.528C538.859 153.933 538.283 154.531 537.835 155.32C537.408 156.088 537.195 157.005 537.195 158.072C537.195 159.139 537.408 160.077 537.835 160.888C538.283 161.677 538.859 162.285 539.562 162.712C540.288 163.139 541.056 163.352 541.867 163.352C542.699 163.352 543.477 163.149 544.203 162.744C544.928 162.317 545.504 161.72 545.931 160.952C546.357 160.163 546.571 159.224 546.571 158.136ZM562.242 167.288C560.791 167.288 559.49 167.032 558.338 166.52C557.186 165.987 556.269 165.272 555.586 164.376C554.925 163.48 554.562 162.488 554.498 161.4H559.01C559.095 162.083 559.426 162.648 560.002 163.096C560.599 163.544 561.335 163.768 562.21 163.768C563.063 163.768 563.725 163.597 564.194 163.256C564.685 162.915 564.93 162.477 564.93 161.944C564.93 161.368 564.631 160.941 564.034 160.664C563.458 160.365 562.53 160.045 561.25 159.704C559.927 159.384 558.839 159.053 557.986 158.712C557.154 158.371 556.429 157.848 555.81 157.144C555.213 156.44 554.914 155.491 554.914 154.296C554.914 153.315 555.191 152.419 555.746 151.608C556.322 150.797 557.133 150.157 558.178 149.688C559.245 149.219 560.493 148.984 561.922 148.984C564.034 148.984 565.719 149.517 566.978 150.584C568.237 151.629 568.93 153.048 569.058 154.84H564.77C564.706 154.136 564.407 153.581 563.874 153.176C563.362 152.749 562.669 152.536 561.794 152.536C560.983 152.536 560.354 152.685 559.906 152.984C559.479 153.283 559.266 153.699 559.266 154.232C559.266 154.829 559.565 155.288 560.162 155.608C560.759 155.907 561.687 156.216 562.946 156.536C564.226 156.856 565.282 157.187 566.114 157.528C566.946 157.869 567.661 158.403 568.258 159.128C568.877 159.832 569.197 160.771 569.218 161.944C569.218 162.968 568.93 163.885 568.354 164.696C567.799 165.507 566.989 166.147 565.922 166.616C564.877 167.064 563.65 167.288 562.242 167.288Z" fill="#FFC000"/>
</svg>
